<svg width="18" height="18" viewBox="0 0 18 18" fill="none" xmlns="http://www.w3.org/2000/svg">
<path d="M2.8125 12.375V5.0625C2.8125 4.76413 2.93103 4.47798 3.142 4.267C3.35298 4.05603 3.63913 3.9375 3.9375 3.9375H14.0625C14.3609 3.9375 14.647 4.05603 14.858 4.267C15.069 4.47798 15.1875 4.76413 15.1875 5.0625V12.375" stroke="#737373" stroke-linecap="round" stroke-linejoin="round"/>
<path d="M1.6875 12.375H16.3125V13.5C16.3125 13.7984 16.194 14.0845 15.983 14.2955C15.772 14.5065 15.4859 14.625 15.1875 14.625H2.8125C2.51413 14.625 2.22798 14.5065 2.017 14.2955C1.80603 14.0845 1.6875 13.7984 1.6875 13.5V12.375Z" stroke="#737373" stroke-linecap="round" stroke-linejoin="round"/>
<path d="M10.125 6.1875H7.875" stroke="#737373" stroke-linecap="round" stroke-linejoin="round"/>
</svg>
