<svg width="15" height="16" viewBox="0 0 15 16" fill="none" xmlns="http://www.w3.org/2000/svg">
<path d="M13.6962 3.79747H10.7002C11.0443 3.39484 11.2533 2.87372 11.2533 2.3038C11.2533 1.03352 10.2197 0 8.94947 0C8.16223 0 7.46653 0.39757 7.05073 1.00192C6.63494 0.39757 5.93924 0 5.152 0C3.88172 0 2.8482 1.03352 2.8482 2.3038C2.8482 2.87372 3.05742 3.39484 3.40132 3.79747H0.405063C0.181468 3.79747 0 3.97894 0 4.20253V13.5696C0 14.9098 1.09023 16 2.43038 16H11.6709C13.011 16 14.1013 14.9098 14.1013 13.5696V4.20253C14.1013 3.97894 13.92 3.79747 13.6962 3.79747ZM5.55706 4.60759H8.5444V9.00051L7.34623 7.72273C7.27109 7.64273 7.16699 7.59656 7.05722 7.59494C6.94704 7.5923 6.84192 7.63605 6.76435 7.71342L5.55706 8.92051V4.60759ZM8.94947 0.810127C9.77296 0.810127 10.4431 1.4803 10.4431 2.3038C10.4431 3.12729 9.77296 3.79747 8.94947 3.79747H7.4558V2.3038C7.4558 1.4803 8.12597 0.810127 8.94947 0.810127ZM3.65833 2.3038C3.65833 1.4803 4.32851 0.810127 5.152 0.810127C5.97549 0.810127 6.64567 1.4803 6.64567 2.3038V3.79747H5.152C4.32851 3.79747 3.65833 3.12729 3.65833 2.3038ZM13.2911 13.5696C13.2911 14.463 12.5643 15.1899 11.6709 15.1899H2.43038C1.53701 15.1899 0.810127 14.463 0.810127 13.5696V4.60759H4.74694V9.89873C4.74694 10.0626 4.84557 10.2102 4.99706 10.273C5.14815 10.3356 5.32253 10.3012 5.43838 10.1851L7.04142 8.58208L8.65397 10.3016C8.73215 10.3848 8.8397 10.4296 8.94947 10.4296C8.99949 10.4296 9.05013 10.4203 9.09833 10.4012C9.25286 10.3401 9.35433 10.1908 9.35433 10.0245V4.60759H13.2909V13.5696H13.2911Z" fill="black"/>
</svg>
