<svg width="19" height="20" viewBox="0 0 19 20" fill="none" xmlns="http://www.w3.org/2000/svg">
<path d="M0.833333 20C0.333333 20 0 19.6667 0 19.1667V0.833333C0 0.333333 0.333333 0 0.833333 0C1.33333 0 1.66667 0.333333 1.66667 0.833333V19.1667C1.66667 19.6667 1.33333 20 0.833333 20Z" fill="black"/>
<path d="M9.16667 10H0.833333C0.333333 10 0 9.66667 0 9.16667V0.833333C0 0.333333 0.333333 0 0.833333 0H9.16667C9.66667 0 10 0.333333 10 0.833333V9.16667C10 9.66667 9.66667 10 9.16667 10ZM1.66667 8.33333H8.33333V1.66667H1.66667V8.33333Z" fill="black"/>
<path d="M17.5007 11.6665H9.16732C8.66732 11.6665 8.33398 11.3332 8.33398 10.8332V2.49984C8.33398 1.99984 8.66732 1.6665 9.16732 1.6665H17.5007C17.834 1.6665 18.1673 1.83317 18.2507 2.1665C18.4173 2.49984 18.334 2.83317 18.084 3.08317L14.5007 6.6665L18.084 10.2498C18.334 10.4998 18.4173 10.8332 18.2507 11.1665C18.1673 11.4998 17.834 11.6665 17.5007 11.6665ZM10.0007 9.99984H15.5007L12.7507 7.24984C12.4173 6.9165 12.4173 6.4165 12.7507 6.08317L15.5007 3.33317H10.0007V9.99984Z" fill="black"/>
</svg>
