<svg width="16" height="16" viewBox="0 0 16 16" fill="none" xmlns="http://www.w3.org/2000/svg">
<path d="M15.6444 6.22222H14.4178C13.9911 6.22222 13.7067 5.93778 13.6 5.68889C13.4933 5.42222 13.4756 5.03111 13.7956 4.72889L14.6667 3.85778C14.8089 3.71556 14.8089 3.50222 14.6667 3.36L12.6578 1.33333C12.5156 1.19111 12.3022 1.19111 12.16 1.33333L11.2889 2.20444C10.9867 2.50667 10.5956 2.50667 10.3289 2.4C10.0622 2.29333 9.79556 2.02667 9.79556 1.58222V0.355556C9.79556 0.16 9.63556 0 9.44 0H6.57778C6.38222 0 6.22222 0.16 6.22222 0.355556V1.58222C6.22222 2.00889 5.93778 2.29333 5.68889 2.4C5.42222 2.50667 5.03111 2.50667 4.72889 2.20444L3.85778 1.33333C3.71556 1.19111 3.50222 1.19111 3.36 1.33333L1.33333 3.34222C1.19111 3.48444 1.19111 3.69778 1.33333 3.84L2.20444 4.71111C2.50667 5.01333 2.50667 5.40444 2.4 5.67111C2.29333 5.93778 2.02667 6.20444 1.58222 6.20444H0.355556C0.16 6.20444 0 6.36444 0 6.56V9.40444C0 9.6 0.16 9.76 0.355556 9.76H1.58222C2.00889 9.76 2.29333 10.0444 2.4 10.2933C2.50667 10.56 2.52444 10.9511 2.20444 11.2533L1.33333 12.1244C1.26222 12.1956 1.22667 12.2844 1.22667 12.3733C1.22667 12.4622 1.26222 12.5511 1.33333 12.6222L3.34222 14.6311C3.48444 14.7733 3.69778 14.7733 3.84 14.6311L4.71111 13.76C5.01333 13.4578 5.40444 13.4578 5.67111 13.5644C5.93778 13.6711 6.20444 13.9378 6.20444 14.3822V15.6444C6.20444 15.84 6.36444 16 6.56 16H9.40444C9.6 16 9.76 15.84 9.76 15.6444V14.4178C9.76 13.9911 10.0444 13.7067 10.2933 13.6C10.56 13.4933 10.9511 13.4756 11.2533 13.7956L12.1244 14.6667C12.2667 14.8089 12.48 14.8089 12.6222 14.6667L14.6311 12.6578C14.7733 12.5156 14.7733 12.3022 14.6311 12.16L13.76 11.2889C13.4578 10.9867 13.4578 10.5956 13.5644 10.3289C13.6711 10.0622 13.9378 9.79556 14.3822 9.79556H15.6444C15.84 9.79556 16 9.63556 16 9.44V6.57778C16 6.38222 15.84 6.22222 15.6444 6.22222ZM15.2889 9.06667H14.4178C13.76 9.06667 13.1911 9.44 12.9422 10.0444C12.6933 10.6489 12.8178 11.3067 13.28 11.7689L13.9022 12.3911L12.3911 13.9022L11.7689 13.28C11.3067 12.8178 10.6489 12.6756 10.0444 12.9422C9.44 13.1911 9.06667 13.76 9.06667 14.4178V15.2889H6.93333V14.4178C6.93333 13.76 6.56 13.1911 5.95556 12.9422C5.35111 12.6933 4.69333 12.8178 4.23111 13.28L3.60889 13.9022L2.09778 12.3911L2.72 11.7689C3.18222 11.3067 3.30667 10.6489 3.05778 10.0444C2.80889 9.44 2.24 9.06667 1.58222 9.06667H0.711111V6.93333H1.58222C2.24 6.93333 2.80889 6.56 3.05778 5.95556C3.30667 5.35111 3.18222 4.69333 2.72 4.23111L2.09778 3.60889L3.60889 2.09778L4.23111 2.72C4.69333 3.18222 5.35111 3.30667 5.95556 3.05778C6.56 2.80889 6.93333 2.24 6.93333 1.58222V0.711111H9.06667V1.58222C9.06667 2.24 9.44 2.79111 10.0444 3.05778C10.6489 3.30667 11.3067 3.18222 11.7689 2.72L12.3911 2.09778L13.9022 3.60889L13.28 4.23111C12.8178 4.69333 12.6933 5.35111 12.9422 5.95556C13.1911 6.56 13.76 6.93333 14.4178 6.93333H15.2889V9.06667ZM8 4.08889C5.84889 4.08889 4.08889 5.84889 4.08889 8C4.08889 10.1511 5.84889 11.9111 8 11.9111C10.1511 11.9111 11.9111 10.1511 11.9111 8C11.9111 5.84889 10.1511 4.08889 8 4.08889ZM8 11.2C6.24 11.2 4.8 9.76 4.8 8C4.8 6.24 6.24 4.8 8 4.8C9.76 4.8 11.2 6.24 11.2 8C11.2 9.76 9.76 11.2 8 11.2Z" fill="black"/>
</svg>
