<svg width="16" height="17" viewBox="0 0 16 17" fill="none" xmlns="http://www.w3.org/2000/svg">
<path d="M4.93007 0H3.9477C1.74645 0 0 3.60205 0 8.18647C0 12.7709 1.72825 16.3729 3.9477 16.3729H4.93007C6.20353 16.3729 7.25867 15.336 7.25867 14.0443V13.3894C7.25867 12.2797 6.45822 11.3155 5.36669 11.1154L3.98408 10.8607C3.85674 10.8425 3.74758 10.7152 3.74758 10.5878V5.78511C3.74758 5.63957 3.83854 5.53042 3.98408 5.51222L5.36669 5.25753C6.45822 5.05742 7.25867 4.09324 7.25867 2.98351V2.3286C7.25867 1.03695 6.22172 0 4.93007 0ZM6.53098 2.98351C6.53098 3.74758 5.98522 4.4025 5.23934 4.54804L3.85674 4.80273C3.38374 4.89369 3.03809 5.31211 3.03809 5.8033V10.5878C3.03809 11.079 3.38374 11.4974 3.85674 11.5884L5.23934 11.8431C5.98522 11.9886 6.54918 12.6435 6.54918 13.4076V14.0625C6.54918 14.9358 5.83968 15.6634 4.94827 15.6634H3.96589C2.40136 15.6453 0.727686 12.6435 0.727686 8.18647C0.727686 3.72939 2.40136 0.727686 3.96589 0.727686H4.94827C5.82149 0.727686 6.54918 1.43718 6.54918 2.3286V2.98351H6.53098ZM14.8266 2.98351C13.2621 1.41899 10.7334 1.41899 9.16885 2.98351C7.8954 4.25696 7.64071 6.20352 8.51393 7.74986L8.18647 9.18704C8.15009 9.31438 8.18647 9.44173 8.27743 9.53269C8.36839 9.62365 8.49574 9.66004 8.62308 9.62365L10.0603 9.29619C10.6606 9.66003 11.3337 9.82376 12.0068 9.82376C13.0438 9.82376 14.0625 9.42354 14.8266 8.65947C16.3911 7.09494 16.3911 4.54804 14.8266 2.98351ZM14.3172 8.13189C13.2439 9.20523 11.5884 9.40534 10.2968 8.60489C10.2422 8.56851 10.1694 8.55031 10.1148 8.55031C10.0785 8.55031 10.0603 8.55031 10.0239 8.56851L9.00512 8.805L9.24162 7.78624C9.25981 7.69528 9.24161 7.60432 9.20523 7.51336C8.42297 6.22172 8.62308 4.56623 9.67823 3.49289C10.9517 2.21944 13.0256 2.21944 14.3172 3.49289C15.5907 4.78454 15.5907 6.85844 14.3172 8.13189Z" fill="black"/>
</svg>
